<svg xmlns="http://www.w3.org/2000/svg" version="1.1" xmlns:xlink="http://www.w3.org/1999/xlink" xmlns:svgjs="http://svgjs.com/svgjs" width="18" height="19"><svg width="18" height="19" viewBox="0 0 18 19" fill="none" xmlns="http://www.w3.org/2000/svg">
<path d="M5.60591 15.9801C5.60591 15.9801 8.42752 17.2541 8.92764 17.9611C8.93602 17.9731 8.94724 17.9829 8.96034 17.9897C8.97344 17.9965 8.98802 18 9.00282 18C9.01762 18 9.0322 17.9965 9.0453 17.9897C9.0584 17.9829 9.06962 17.9731 9.078 17.9611C9.57812 17.2541 12.3997 15.9801 12.3997 15.9801C13.761 15.3523 14.9146 14.3599 15.7282 13.117C16.5418 11.874 16.9824 10.4308 16.9995 8.95287C17.0496 4.56431 13.36 0.944567 8.89512 1.00064C7.08481 1.02348 5.33595 1.64936 3.93451 2.77594C2.53306 3.90252 1.56197 5.46313 1.18002 7.20259C0.798066 8.94205 1.02786 10.7574 1.83182 12.3518C2.63578 13.9463 3.96634 15.2254 5.60591 15.9801Z" fill="#ADEFDB" stroke="#7ABCA8"></path>
<path d="M9.04499 12.0054C10.8861 12.0054 12.3787 10.5128 12.3787 8.6717C12.3787 6.83055 10.8861 5.33801 9.04499 5.33801C7.20385 5.33801 5.7113 6.83055 5.7113 8.6717C5.7113 10.5128 7.20385 12.0054 9.04499 12.0054Z" fill="white" stroke="#7ABCA8"></path>
</svg><style>@media (prefers-color-scheme: light) { :root { filter: none; } }
</style></svg>